<?xml version="1.0" encoding="utf-8"?>
<!-- Designed by Vexels.com - 2019 All Rights Reserved - https://vexels.com/terms-and-conditions/  -->
<svg version="1.1" id="Capa_1" xmlns="http://www.w3.org/2000/svg" xmlns:xlink="http://www.w3.org/1999/xlink" x="0px" y="0px"
	 viewBox="0 0 1200 1200" enable-background="new 0 0 1200 1200" xml:space="preserve">
<g>
	<g>
		<g>
			<g>
				<path fill="#E38569" d="M1141.208,570.739c-15.79,48.558-49.917,85.317-82.94,120.844c-5.051,5.391-10.017,10.782-14.899,16.172
					c-29.076,31.962-50.256,67.192-72.71,104.502c-6.24,10.442-12.564,20.969-19.143,31.495
					c-24.067,38.711-47.328,66.471-73.177,87.354c-32.726,26.401-66.98,34.636-103.229,43.38l-4.457,1.104
					c-37.14,8.999-75.045,16.512-111.676,23.813l-14.177,2.801c-37.48,7.471-78.059,11.206-120.844,11.206
					c-54.119,0-111.676-5.985-170.846-17.827c-92.788-18.634-162.187-50.341-212.231-96.947
					C82.6,844.39,53.651,731.482,77.039,651.132c0.085-1.061,0.17-2.122,0.297-3.183c8.022-89.646,66.853-192.451,157.391-275.052
					c91.726-83.661,200.304-131.158,290.374-127.041c32.726,1.486,64.476,9.126,95.207,16.512
					c18.295,4.372,37.225,8.914,55.774,11.97c41.385,6.834,84.765,7.004,126.744,7.131c47.794,0.169,97.202,0.297,145.421,10.102
					c64.858,13.158,128.739,52.463,161.423,106.073c2.037,1.061,3.863,2.547,5.263,4.542
					C1149.146,450.828,1159.206,515.431,1141.208,570.739z"/>
			</g>
		</g>
	</g>
	<g>
		<path d="M1096.021,343.157c-1.404-1.997-3.236-3.482-5.257-4.545c-32.7-53.586-96.572-92.913-161.448-106.072
			c-48.212-9.783-97.622-9.94-145.407-10.093c-41.97-0.137-85.369-0.274-126.742-7.109c-18.562-3.067-37.48-7.61-55.781-12.004
			c-30.716-7.374-62.48-14.997-95.218-16.498c-90.051-4.1-198.633,43.371-290.365,127.061
			C125.285,396.476,66.439,499.288,58.391,588.914c-0.095,1.057-0.173,2.129-0.257,3.196
			c-23.428,80.359,5.554,193.255,63.806,247.497c50.046,46.595,119.475,78.306,212.254,96.938
			c59.159,11.88,116.735,17.841,170.846,17.841c42.765,0,83.371-3.727,120.856-11.196l14.168-2.819
			c36.635-7.279,74.517-14.811,111.653-23.801l4.489-1.086c36.249-8.746,70.492-17.012,103.206-43.416
			c25.857-20.871,49.116-48.618,73.199-87.334c6.545-10.525,12.867-21.037,19.142-31.486
			c22.429-37.319,43.615-72.569,72.673-104.528c4.895-5.385,9.886-10.757,14.902-16.154c33.024-35.54,67.172-72.291,82.953-120.831
			C1140.27,456.418,1130.206,391.821,1096.021,343.157z M235.828,335.845c82.664-75.417,178.722-119.55,259.198-119.55
			c3.287,0,6.549,0.07,9.783,0.22c29.915,1.372,58.927,8.336,89.643,15.71c18.811,4.518,38.26,9.186,57.874,12.427
			c43.727,7.225,88.341,7.366,131.488,7.507c46.343,0.149,94.26,0.303,139.596,9.497c84.482,17.14,167.306,83.118,159.662,163.87
			c-4.158,43.947-34.127,86.526-91.62,130.17c-9.675,7.341-19.793,14.628-29.58,21.671c-23.088,16.626-46.969,33.816-68.357,54.078
			c-20.071,19.014-36.158,41.286-51.715,62.828c-7.499,10.379-15.254,21.115-23.204,31.101
			c-20.502,25.733-46.077,43.615-78.194,54.67c-31.391,10.802-65.8,15.13-99.259,19.337
			c-64.109,8.058-140.209,16.203-219.365,15.843c-59.852-0.303-128.452-5.194-183.46-39.159
			c-35.907-22.177-65.512-55.164-94.14-87.069c-4.618-5.144-9.221-10.272-13.839-15.345c-3.409-3.747-7.132-7.565-10.945-11.474
			c-12.239-12.531-24.892-25.493-29.584-39.134c-3.241-9.422-2.794-20.693-1.826-31.466
			C95.384,509.149,150.654,413.549,235.828,335.845z M1017.562,612.342c-5.086,5.476-10.151,10.927-15.121,16.39
			c-31.031,34.127-53.97,72.299-76.154,109.212c-6.201,10.321-12.44,20.705-18.902,31.097
			c-22.272,35.802-43.445,61.19-66.633,79.906c-27.515,22.21-57.174,29.368-91.516,37.659l-4.51,1.09
			c-36.539,8.846-74.115,16.311-110.451,23.532l-14.189,2.823c-81.095,16.166-177.934,13.874-280.041-6.636
			c-87.23-17.517-151.95-46.811-197.854-89.552c-36.337-33.835-59.863-96.386-62.301-154.751
			c5.854,7.066,12.208,13.641,18.245,19.823c3.565,3.652,7.047,7.213,10.23,10.711c4.57,5.024,9.128,10.102,13.7,15.196
			c30.036,33.468,61.093,68.076,100.642,92.499c61.271,37.837,134.941,43.271,198.923,43.594c1.921,0.008,3.836,0.012,5.753,0.012
			c78.675,0,153.959-8.104,217.649-16.112c34.778-4.369,70.741-8.891,105.038-20.697c37.621-12.949,67.64-33.965,91.765-64.254
			c8.39-10.533,16.353-21.555,24.054-32.216c15.432-21.372,30.015-41.555,48.063-58.654c19.938-18.885,42.989-35.482,65.286-51.536
			c9.936-7.15,20.208-14.549,30.181-22.118c44.95-34.121,74.93-68.467,90.683-103.985c-1.193,9.246-3.204,18.353-6.073,27.176
			C1080.269,544.851,1048.393,579.16,1017.562,612.342z"/>
		<path d="M449.661,383.51L216.547,616.624c-5.801,5.799-5.801,15.208,0,21.008c2.902,2.902,6.705,4.352,10.506,4.352
			s7.604-1.451,10.506-4.352l233.11-233.114c5.803-5.799,5.803-15.209,0-21.008C464.865,377.706,455.464,377.706,449.661,383.51z"/>
		<path d="M410.471,687.784c2.902,2.902,6.705,4.352,10.506,4.352s7.604-1.451,10.506-4.352l340.923-340.925
			c5.803-5.799,5.803-15.209,0-21.008c-5.803-5.803-15.204-5.803-21.008,0L410.471,666.776
			C404.67,672.575,404.67,681.984,410.471,687.784z"/>
		<path d="M624.457,687.784c2.902,2.902,6.703,4.352,10.504,4.352c3.801,0,7.602-1.451,10.504-4.352l355.184-355.184
			c5.803-5.799,5.803-15.209,0-21.008c-5.803-5.803-15.204-5.803-21.008,0L624.457,666.776
			C618.654,672.575,618.654,681.984,624.457,687.784z"/>
		<path d="M156.788,542.525c1.391,0.406,2.794,0.601,4.174,0.601c6.431,0,12.359-4.207,14.253-10.694
			c16.906-57.837,55.28-111.508,108.051-151.123c47.897-35.955,108.509-61.116,175.29-72.764c8.083-1.409,13.492-9.107,12.083-17.19
			c-1.409-8.079-9.103-13.476-17.19-12.083c-71.375,12.452-136.392,39.52-188.019,78.277
			C207.558,400.99,165.392,460.141,146.697,524.1C144.394,531.972,148.913,540.225,156.788,542.525z"/>
	</g>
</g>
</svg>
